<svg xmlns="http://www.w3.org/2000/svg" viewBox="0 0 40 40"><rect width="40" height="40" rx="3" fill="#171717"/><path d="M36 2H4a2 2 0 0 0-2 2v32a2 2 0 0 0 2 2h32a2 2 0 0 0 2-2V4a2 2 0 0 0-2-2zm1 34a1 1 0 0 1-1 1H4a1 1 0 0 1-1-1V4a1 1 0 0 1 1-1h32a1 1 0 0 1 1 1z" fill="#8b8b8b"/><path d="M17.775 16.663a13.741 13.741 0 0 1 3.337.382 7.469 7.469 0 0 1 2.433 1.008 1.736 1.736 0 0 1 .904 1.391 1.736 1.736 0 0 1-.904 1.391 7.469 7.469 0 0 1-2.433 1.008 13.741 13.741 0 0 1-3.337.382 13.741 13.741 0 0 1-3.337-.382 7.468 7.468 0 0 1-2.433-1.008 1.736 1.736 0 0 1-.904-1.391 1.736 1.736 0 0 1 .904-1.391 7.468 7.468 0 0 1 2.433-1.008 13.741 13.741 0 0 1 3.337-.382zm-6.674 4.866a7.436 7.436 0 0 0 2.885 1.356 15.295 15.295 0 0 0 3.789.452 15.295 15.295 0 0 0 3.789-.452 7.436 7.436 0 0 0 2.885-1.356v1.808q0 .59-.904 1.112a7.946 7.946 0 0 1-2.433.817 17.627 17.627 0 0 1-3.337.295 17.627 17.627 0 0 1-3.337-.295 7.945 7.945 0 0 1-2.433-.817q-.904-.52-.904-1.112zm0 3.65a8.207 8.207 0 0 0 2.885 1.147 19.318 19.318 0 0 0 3.789.348 19.318 19.318 0 0 0 3.789-.348 8.207 8.207 0 0 0 2.885-1.147v1.495q0 .59-.904 1.112a7.944 7.944 0 0 1-2.433.817 17.627 17.627 0 0 1-3.337.295 17.627 17.627 0 0 1-3.337-.295 7.943 7.943 0 0 1-2.433-.817q-.904-.52-.904-1.112zm11.123-9.628a17.635 17.635 0 0 1-3.337-.295 7.949 7.949 0 0 1-2.433-.817q-.904-.52-.904-1.112 0-.59.904-1.112a7.944 7.944 0 0 1 2.433-.817 17.627 17.627 0 0 1 3.337-.295 17.627 17.627 0 0 1 3.337.295 7.943 7.943 0 0 1 2.433.817q.904.52.904 1.112 0 .59-.904 1.112a7.948 7.948 0 0 1-2.433.817 17.635 17.635 0 0 1-3.337.295zm3.163 3.06a3.73 3.73 0 0 0-2.085-1.982 14.042 14.042 0 0 0 3.163-.452 7.471 7.471 0 0 0 2.433-1.008v1.495q0 .625-.956 1.147a8.418 8.418 0 0 1-2.555.8zm.174 3.302v-2.19a8.067 8.067 0 0 0 3.337-1.217V20q0 .59-.904 1.112a7.654 7.654 0 0 1-2.433.799z" fill="#ffc600"/></svg>