<svg xmlns="http://www.w3.org/2000/svg" viewBox="0 0 40 40"><rect width="40" height="40" rx="3" fill="#171717"/><path d="M36 2H4a2 2 0 0 0-2 2v32a2 2 0 0 0 2 2h32a2 2 0 0 0 2-2V4a2 2 0 0 0-2-2zm1 34a1 1 0 0 1-1 1H4a1 1 0 0 1-1-1V4a1 1 0 0 1 1-1h32a1 1 0 0 1 1 1z" fill="#8b8b8b"/><path d="M27.16 13.294a4.698 4.698 0 0 1 1.495 2.225 5.066 5.066 0 0 1 .122 2.659 4.616 4.616 0 0 1-1.269 2.312L20.8 27.44a1.093 1.093 0 0 1-1.599 0l-6.71-6.917a4.818 4.818 0 0 1-1.269-2.346 5.066 5.066 0 0 1 .122-2.659 4.698 4.698 0 0 1 1.495-2.225 4.397 4.397 0 0 1 2.121-1.008 4.684 4.684 0 0 1 2.329.174 4.923 4.923 0 0 1 2.016 1.286l.695.695.695-.695a4.923 4.923 0 0 1 2.016-1.286 4.684 4.684 0 0 1 2.329-.174 4.397 4.397 0 0 1 2.121 1.008z" fill="#ff2400"/></svg>