<svg xmlns="http://www.w3.org/2000/svg" viewBox="0 0 40 40"><rect width="40" height="40" rx="3" fill="#171717"/><path d="M36 2H4a2 2 0 0 0-2 2v32a2 2 0 0 0 2 2h32a2 2 0 0 0 2-2V4a2 2 0 0 0-2-2zm1 34a1 1 0 0 1-1 1H4a1 1 0 0 1-1-1V4a1 1 0 0 1 1-1h32a1 1 0 0 1 1 1z" fill="#8b8b8b"/><path d="M20 11.102a9.644 9.644 0 0 1 4.467 1.043 8.441 8.441 0 0 1 3.232 2.833 6.975 6.975 0 0 1 .33 7.282 8.09 8.09 0 0 1-2.433 2.677 1.072 1.072 0 0 0-.365.452 1.135 1.135 0 0 0-.087.591l.313 2.294a.536.536 0 0 1-.122.434.493.493 0 0 1-.399.191h-2.71v-1.947a.299.299 0 0 0-.278-.278h-.556a.299.299 0 0 0-.278.278v1.947h-2.225v-1.947a.299.299 0 0 0-.278-.278h-.556a.299.299 0 0 0-.278.278v1.947h-2.71a.493.493 0 0 1-.399-.191.536.536 0 0 1-.122-.434l.313-2.294a1.135 1.135 0 0 0-.087-.591 1.072 1.072 0 0 0-.365-.452 8.09 8.09 0 0 1-2.433-2.677 6.975 6.975 0 0 1 .33-7.282 8.441 8.441 0 0 1 3.232-2.833A9.644 9.644 0 0 1 20 11.102zm-3.337 11.123a2.256 2.256 0 1 0-1.564-.661 2.137 2.137 0 0 0 1.564.661zm6.674 0a2.256 2.256 0 1 0-1.564-.661 2.137 2.137 0 0 0 1.564.661z" fill="#c000ff"/></svg>